<?xml version="1.0" encoding="utf-8"?>
<!-- Generator: Adobe Illustrator 19.2.1, SVG Export Plug-In . SVG Version: 6.00 Build 0)  -->
<svg version="1.1" id="Layer_1" xmlns="http://www.w3.org/2000/svg" xmlns:xlink="http://www.w3.org/1999/xlink" x="0px" y="0px"
	 viewBox="0 0 147 43" style="enable-background:new 0 0 147 43;" xml:space="preserve">
<style type="text/css">
	.st0{fill:#FFFFFF;}
</style>
<g>
	<path class="st0" d="M55.9,20.8v10.5c0,4.3-1.8,6.3-5.6,6.3c-4.4,0-5.3-3.4-5.3-6.3V20.8h-1.3v10.5c0,4.9,2.2,7.5,6.6,7.5
		c4.5,0,6.8-2.5,6.8-7.5V20.8H55.9z"/>
	<path class="st0" d="M65.5,25.4c-2,0-3.7,1-4.4,2.7c0-0.6,0-2.4,0-2.4h-1.1v12.6h1.1v-6.8c0-3.1,1.7-5.1,4.4-5.1c3.4,0,3.4,3,3.4,4
		v8H70v-7.8C70,29.1,70,25.4,65.5,25.4z"/>
	<polygon class="st0" points="72.8,25.7 72.8,38.3 73.9,38.3 73.9,25.7 73.8,25.7 	"/>
	<polygon class="st0" points="72.8,21.8 72.8,23.5 73.9,23.5 73.9,21.8 73.8,21.8 	"/>
	<path class="st0" d="M85.2,25.7c0,0-4,10.9-4.2,11.2c-0.1-0.4-4.4-11.2-4.4-11.2h-1.3l5.1,12.6h1.3l4.8-12.6h-0.1H85.2z"/>
	<path class="st0" d="M92.6,25.4c-1.5,0-2.7,0.5-3.7,1.5C87.7,28.1,87,30,87,32.2c0,2,0.6,3.7,1.7,4.9c1,1,2.3,1.5,3.9,1.5
		c3,0,5-1.6,5.5-4.6l0-0.1H97V34c-0.4,2.3-2,3.6-4.3,3.6c-1.2,0-2.2-0.4-3-1.2c-1-1-1.5-2.5-1.5-4.2c0,0,0,0,0,0c0.2,0,10,0,10,0
		v-0.1c0-0.1,0-0.3,0-0.5c0-1.9-0.6-3.6-1.6-4.7C95.6,25.9,94.2,25.4,92.6,25.4z M92.6,26.4c2.8,0,4.3,2.4,4.4,4.8
		c-0.2,0-8.6,0-8.9,0C88.4,28.8,90,26.4,92.6,26.4z"/>
	<path class="st0" d="M101.3,28.2c0-0.6,0-2.5,0-2.5h-1.1v12.6h1.1v-6.9c0.1-1.9,0.5-2.6,1.4-3.5c1.3-1.3,2.9-1.2,3.3-1.2h0.1v-1.1
		H106C104,25.5,102,26.6,101.3,28.2z"/>
	<path class="st0" d="M112.2,31.3l-0.4-0.1c-1.9-0.4-3.7-0.8-3.7-2.6c0-1.7,1.8-2.3,3.5-2.3c1.3,0,3.6,0.4,3.6,3.1v0.1h1.1v-0.1
		c0-2.6-1.7-4.1-4.7-4.1c-1.1,0-4.6,0.2-4.6,3.3c0,2.7,2.5,3.3,4.4,3.6l0.3,0.1c2,0.4,3.9,0.8,3.9,2.7c0,2.3-2.7,2.5-3.8,2.5
		c-2.3,0-3.9-1.4-4-3.5v-0.1h-1.1V34c0.1,2.8,2,4.5,5.2,4.5c1.1,0,5-0.3,5-3.6C116.6,32.4,114.6,31.8,112.2,31.3z"/>
	<polygon class="st0" points="119,25.7 119,38.3 120.1,38.3 120.1,25.7 120,25.7 	"/>
	<path class="st0" d="M137.8,25.7c0,0-4,10.7-4.2,11.2c-0.2-0.5-4.6-11.2-4.6-11.2s-3.9,0-4,0c0-0.2,0-3.9,0-3.9h-0.1h-1
		c0,0,0,3.7,0,3.9c-0.2,0-2.3,0-2.3,0v1c0,0,2.1,0,2.3,0c0,0.2,0,8.6,0,8.6c0,0.1,0,0.1,0,0.2c0,1,0.2,1.7,0.7,2.2
		c0.7,0.7,2,0.7,3,0.7h0.1v-1h-0.1c-1,0-1.7,0-2.1-0.4c-0.3-0.3-0.5-0.8-0.5-1.6c0,0,0-8.4,0-8.6c0.2,0,3,0,3.2,0
		c0,0.1,4.8,11.4,4.8,11.5c-0.6,1.6-0.9,2.5-1.3,2.9c-0.6,0.6-1.2,0.8-2.5,0.8h-0.1v1h0.1c1.4,0,2.3,0,3-0.6
		c0.5-0.4,0.9-1.3,1.5-2.6l5.4-13.9L137.8,25.7L137.8,25.7z"/>
	<polygon class="st0" points="119,21.8 119,23.5 120.1,23.5 120.1,21.8 120,21.8 	"/>
</g>
<g>
	<path class="st0" d="M72.5,18.1c-5-0.1-9.3-4-9.2-9.3c0.1-4.2,3.5-9,9.7-8.8c4.3,0.1,9.1,3.3,9,9.2C81.8,15.2,76.8,18.3,72.5,18.1z
		 M72.6,1.1c-3.9,0-6.5,2.8-6.5,7.6c0,5.7,3.4,8.3,6.6,8.3c3.9,0,6.4-3,6.4-7.6C79.1,4.3,76.5,1.1,72.6,1.1z"/>
	<path class="st0" d="M146.5,0.5V0.2h-5v0.3c1,0.1,1.3,0.3,1.3,1.7v6.2h-9V2.2c0-1.4,0.3-1.6,1.3-1.7V0.2h-5v0.3
		c1,0.1,1.3,0.3,1.3,1.7v13.8c0,1.4-0.3,1.6-1.3,1.7v0.3h5v-0.3c-1-0.1-1.3-0.3-1.3-1.7V9.4h9V16c0,1.4-0.3,1.6-1.3,1.7v0.3h5v-0.3
		c-1-0.1-1.3-0.3-1.3-1.7V2.2C145.3,0.7,145.5,0.6,146.5,0.5z"/>
	<path class="st0" d="M83.3,0.2v0.3c1,0,1.3,0.1,1.3,1.2V16c0,1.4-0.3,1.6-1.3,1.7v0.3h3.8v-0.3c-1-0.1-1.3-0.3-1.3-1.7V3.1
		c0,0.2,9.8,12.2,12,14.8h0.4V1.7c0-1,0.3-1.1,1.3-1.2V0.2h-3.7v0.3c1,0,1.3,0.1,1.3,1.2v11.2L86.6,0.2H83.3z"/>
	<path class="st0" d="M108,0.2h-0.3c-0.9,2.1-5,11.9-6.4,15.3c-0.3,0.6-0.7,1.5-1,1.9c-0.2,0.3-0.4,0.3-0.7,0.3v0.3h3.4v-0.3
		c-0.3,0-0.9,0-0.9-0.5c0-0.1,0-0.3,0.1-0.5c0.1-0.3,0.8-2,1.6-4h6.7c0.7,1.6,1.3,3,1.6,3.7l0,0c0.1,0.2,0.3,0.6,0.3,0.8
		c0,0.5-0.4,0.5-0.9,0.5v0.3h4.7v-0.3c-0.6,0-0.8-0.2-1.2-1.1L108,0.2z M104.3,11.5c1.1-2.8,2.9-7.3,2.9-7.3s1.6,4,2.9,7.3H104.3z"
		/>
	<path class="st0" d="M42.7,0.2v0.3c0.6,0,0.9,0.1,1,0.3c0,0.1,0.1,0.2,0.1,0.3l0,0c0,0.1,0,0.2,0,0.3s0,0.2,0,0.3V16
		c0,1.4-0.3,1.6-1.3,1.7v0.3h3.8v-0.3c-1-0.1-1.3-0.3-1.3-1.7V3.7c0-0.2,0-0.7,0-0.7l0.2,0.7l6.1,14.1h0.4l6.2-14.5l0.2-0.6
		c0,0,0,0.3,0,0.6V16c0,1.4-0.3,1.6-1.3,1.7v0.3h5v-0.3c-1-0.1-1.3-0.3-1.3-1.7V1.7c0-1,0.3-1.1,1.3-1.2V0.2h-3.9l-5.6,13.3
		L46.8,0.2L42.7,0.2z"/>
	<path class="st0" d="M117,16.7c1.2,0.7,2.9,1.4,4.8,1.4c0,0,0.1,0,0.1,0c2.7,0,5.7-2.1,5.7-5.3c0-3.5-2.4-4.3-4.9-5.6
		c-2.5-1.2-3.5-1.9-3.5-3.5c0-1.1,0.7-2.7,2.9-2.7c0.7,0,1.3,0.2,1.9,0.4c1.8,1,1.9,2.4,2.1,3.3h0.3l-0.1-3.9
		c-1.1-0.5-2-0.7-2.7-0.8c-0.4,0-0.7-0.1-1-0.1c-2.5,0-5.4,1.5-5.4,4.6c0,2.1,1.3,3.4,3.8,4.7c2.5,1.3,4.4,1.8,4.4,4.3
		c0,1.3-0.7,3.5-3.5,3.5c-1.1,0-2-0.4-2.7-1c-1.7-1.6-1.6-2.8-1.7-3.3H117L117,16.7"/>
</g>
<g>
	<g>
		<path id="SVGID_1_" class="st0" d="M26.3,8.7H26V2.5c0.3,0.6,0.3,1.3,0.3,1.8V8.7z M14.5,6.2c0.4,0.1,0.8,0.2,1.2,0.2V6.2
			c-0.4,0-0.8-0.1-1.1-0.2c-0.5-0.1-0.9-0.2-1.4-0.2c-0.2,0-0.4,0-0.6,0.1v0.3C12.7,6.1,12.9,6,13.2,6C13.6,6,14,6.1,14.5,6.2z
			 M10.9,6c0.3,0,0.5,0,0.6,0.1V5.8c-0.2-0.1-0.4-0.1-0.6-0.1c-0.4,0-0.9,0.1-1.4,0.2C9.1,6,8.8,6.1,8.4,6.1v0.3
			c0.4,0,0.8-0.1,1.2-0.2C10.1,6.1,10.5,6,10.9,6z M10.9,5.3c0.3,0,0.5,0.1,0.6,0.1V5C11.3,5,11.1,5,10.9,4.9C10.4,4.9,10,5,9.5,5.2
			C9.1,5.3,8.8,5.3,8.4,5.4v0.3c0.4,0,0.8-0.1,1.2-0.2C10.1,5.3,10.5,5.2,10.9,5.3z M10.9,6.8c0.3,0,0.5,0,0.6,0.1V6.6
			c-0.2-0.1-0.4-0.1-0.6-0.1c-0.4,0-0.9,0.1-1.4,0.2C9.1,6.8,8.8,6.9,8.4,6.9v0.3C8.8,7.2,9.2,7,9.6,7C10.1,6.9,10.5,6.7,10.9,6.8z
			 M10.9,4.5c0.3,0,0.5,0.1,0.6,0.1V4.3c-0.2-0.1-0.4-0.1-0.6-0.1c-0.4,0-0.9,0.1-1.4,0.2C9.1,4.5,8.8,4.6,8.4,4.6v0.3
			c0.4,0,0.8-0.1,1.2-0.2C10.1,4.6,10.5,4.5,10.9,4.5z M8.9,27.2c-3.7-6-3.6-11.9-3.6-12.7V0.2h27.8v14.3c0,0.7,0.1,6.6-3.6,12.7
			c-3.3,5.5-8.2,7.9-10.3,8.6C17.1,35.1,12.2,32.7,8.9,27.2z M16.3,26.1l-0.7-0.6l0.4-0.9l-1,0.2l-0.4-0.9l-0.4,0.9l-0.9-0.2
			l0.4,0.9l-0.7,0.6l0.9,0.2v1l0.8-0.6l0.7,0.6v-1L16.3,26.1z M20.3,32.1l0.9-0.4l-0.9-0.4l0.3-1l-1,0.4l-0.4-0.9l-0.4,0.9l-1-0.4
			l0.4,1l-0.9,0.4l0.9,0.4l-0.4,1l1-0.4l0.4,0.9l0.4-0.9l1,0.4L20.3,32.1z M18.2,21.1l-0.7,0.6l0.9,0.2v1l0.7-0.6l0.8,0.6l0-1
			l0.9-0.2l-0.7-0.6l0.4-0.9l-1,0.2l-0.4-0.9l-0.4,0.9l-1-0.2L18.2,21.1z M21.5,27.1l0.6-0.6l-0.8-0.1l-0.4-0.7l-0.4,0.7l-0.8,0.1
			l0.6,0.6l-0.1,0.8l0.7-0.4l0.7,0.4L21.5,27.1z M24.2,24.2l0.4-0.7h-0.9l-0.4-0.7L23,23.5h-0.9l0.4,0.7l-0.4,0.7H23l0.4,0.7
			l0.4-0.7h0.9L24.2,24.2z M30.8,6.3c-0.2,0.1-0.4,0.3-0.5,0.5c-0.1,0.2-0.1,0.4-0.1,0.6c0,0,0,0.1,0,0.1c0.1-0.1,0.2-0.1,0.3-0.2
			c0.1-0.1,0.1-0.2,0.2-0.3c0.1-0.1,0.1-0.4,0.1-0.6C30.8,6.4,30.8,6.4,30.8,6.3z M27.9,10.6c0.2,0.1,0.5,0.1,0.7,0.1
			c0.3,0,0.4-0.1,0.6-0.3c-0.2-0.1-0.4-0.1-0.7-0.1C28.3,10.3,28.1,10.5,27.9,10.6z M27.9,10.2c0.1-0.2,0.2-0.4,0.2-0.6
			c0,0,0,0,0-0.1c-0.2,0.1-0.4,0.3-0.6,0.4l0,0c-0.1,0.2-0.2,0.4-0.2,0.6c0,0,0,0,0,0.1C27.6,10.6,27.8,10.4,27.9,10.2z M28.2,10.1
			C28.2,10.1,28.2,10.2,28.2,10.1c0.1,0,0.1,0,0.1,0c0.1-0.1,0.2-0.3,0.3-0.4c0-0.1,0.1-0.3,0.1-0.4c0-0.1,0-0.2-0.1-0.3
			c-0.1,0.1-0.3,0.2-0.3,0.4C28.3,9.6,28.2,9.9,28.2,10.1z M28.9,9.5C28.9,9.6,28.9,9.6,28.9,9.5c0.1,0,0.1,0,0.1-0.1
			c0.1-0.1,0.1-0.3,0.2-0.5c0,0,0-0.1,0-0.1c0-0.2-0.1-0.4-0.2-0.6c-0.1,0.1-0.2,0.3-0.3,0.4C28.9,9,28.9,9.3,28.9,9.5z M29.4,8.8
			C29.4,8.8,29.4,8.8,29.4,8.8c0.1,0,0.1,0,0.1-0.1c0-0.1,0.1-0.2,0.1-0.4c0,0,0-0.1,0-0.1c0-0.2-0.1-0.4-0.3-0.6
			c-0.1,0.1-0.1,0.3-0.1,0.5C29.3,8.3,29.4,8.5,29.4,8.8z M29.8,7.9C29.8,8,29.8,8,29.8,7.9c0.1,0,0.1-0.1,0.1-0.1c0,0,0,0,0-0.1
			c0-0.1,0-0.3-0.1-0.4c-0.1-0.2-0.3-0.4-0.5-0.5c0,0.1,0,0.2,0,0.3s0,0.1,0,0.2C29.5,7.5,29.7,7.7,29.8,7.9z M29.9,7L29.9,7
			c0,0,0.1-0.1,0.1-0.1c0-0.2-0.1-0.3-0.2-0.5c-0.1-0.2-0.3-0.3-0.6-0.4c0,0.2,0,0.4,0.1,0.5C29.6,6.6,29.8,6.8,29.9,7z M29.9,6
			c-0.1-0.2-0.1-0.3-0.3-0.4c-0.2-0.1-0.4-0.2-0.6-0.3c0,0.2,0.1,0.3,0.2,0.4c0.3,0.1,0.5,0.2,0.7,0.4h0C29.9,6.1,29.9,6,29.9,6z
			 M29.6,5.3c0-0.1,0-0.1,0-0.2c-0.1-0.1-0.2-0.3-0.4-0.3c-0.2-0.1-0.4-0.1-0.7-0.1c0.1,0.1,0.2,0.3,0.3,0.4
			C29.1,5,29.4,5.1,29.6,5.3L29.6,5.3z M29.4,10c0.2-0.1,0.4-0.3,0.6-0.5c-0.3,0-0.5,0-0.7,0c-0.2,0.1-0.4,0.3-0.5,0.4
			c0.1,0,0.3,0,0.4,0.1C29.2,10.1,29.3,10.1,29.4,10z M30.1,9.2c0.2-0.1,0.3-0.4,0.4-0.6c-0.3,0-0.5,0.1-0.7,0.2l0,0
			c-0.2,0.1-0.3,0.3-0.4,0.6c0.1,0,0.3,0,0.4,0S30,9.2,30.1,9.2z M30.7,7.5c-0.2,0.1-0.4,0.2-0.6,0.4c-0.1,0.2-0.2,0.4-0.3,0.7
			c0.1,0,0.2-0.1,0.4-0.1c0.1-0.1,0.2-0.1,0.3-0.2C30.6,8,30.7,7.7,30.7,7.5z M30.5,5.2c-0.2,0.2-0.3,0.4-0.4,0.6c0,0.1,0,0.2,0,0.3
			c0,0.1,0,0.3,0.1,0.4c0.1-0.1,0.2-0.2,0.3-0.3c0.1-0.1,0.1-0.2,0.1-0.3c0-0.1,0-0.2,0-0.3C30.6,5.6,30.6,5.4,30.5,5.2z M29.8,4.9
			c0,0.2,0.1,0.4,0.2,0.7c0-0.1,0.1-0.2,0.2-0.3c0-0.1,0.1-0.2,0.1-0.3l0,0c0-0.3-0.1-0.5-0.2-0.7C29.9,4.4,29.8,4.7,29.8,4.9
			L29.8,4.9z M29.2,3.9c0,0.1,0,0.2,0,0.3c0,0.2,0.2,0.4,0.4,0.6c0-0.1,0.1-0.3,0.1-0.4c0,0,0,0,0-0.1c0-0.1,0-0.1,0-0.3
			c-0.1-0.2-0.2-0.4-0.4-0.6C29.2,3.5,29.2,3.7,29.2,3.9z M29.1,4.3c-0.1-0.1-0.3-0.2-0.4-0.3c-0.2-0.1-0.5,0-0.7,0
			c0.1,0.1,0.3,0.3,0.4,0.3c0.3,0,0.6,0,0.8,0h0C29.1,4.4,29.1,4.4,29.1,4.3z M28.4,2.9c0,0.2,0,0.4,0.1,0.6
			c0.1,0.2,0.3,0.4,0.5,0.5c0-0.1,0-0.3,0-0.4c0-0.1,0-0.2-0.1-0.3c-0.1-0.2-0.3-0.4-0.5-0.5C28.4,2.8,28.4,2.8,28.4,2.9z M27.4,3
			c0.1,0.3,0.2,0.5,0.4,0.6c0.2,0.1,0.4,0.2,0.6,0.2c-0.1-0.1-0.1-0.1-0.2-0.3l0,0c0-0.1-0.1-0.2-0.1-0.3c0,0,0,0-0.1-0.1
			C27.9,3,27.7,3,27.4,3z M24.5,8.8c0,0.2,0.1,0.4,0.5,0.4h0.6c-0.1,0.2-0.1,0.6-0.1,0.9c0,0.4,0.1,0.8,0.2,1.1
			c-0.5-0.1-0.8-0.2-1.1-0.4h0L24.4,11h0c0.3,0.1,0.6,0.2,0.9,0.3c0,0,0.3,0,0.4,0.1c0,0-0.1,0.1-0.1,0.2c0,0.1,0.1,0.3,0.3,0.3
			c0.1,0,0.3-0.1,0.3-0.3c0-0.1,0-0.1-0.1-0.2c0.2,0,0.4-0.1,0.4-0.1c0.3-0.1,0.6-0.1,0.9-0.3h0l-0.1-0.2h0
			c-0.3,0.2-0.7,0.3-1.1,0.4c0.1-0.3,0.2-0.6,0.2-1.1c0-0.3,0-0.7-0.1-0.9H27c0.3,0,0.5-0.2,0.5-0.4c0-0.1-0.1-0.3-0.3-0.3
			c-0.1,0-0.3,0.1-0.3,0.3c0,0,0,0.1,0,0.1c0,0,0,0.1-0.1,0.1h-0.4V4.3c0-0.6,0-1.4-0.4-2.2l-0.1-0.2l-0.1,0.2
			c-0.4,0.7-0.4,1.5-0.4,2.2V9h-0.4C24.9,9,25,8.9,25,8.9c0,0,0-0.1,0-0.1c0-0.1-0.1-0.3-0.3-0.3C24.6,8.5,24.5,8.6,24.5,8.8z
			 M23.7,9.3c-0.1-0.1-0.2-0.3-0.3-0.4c0,0.1-0.1,0.2-0.1,0.3c0,0.1,0,0.3,0.1,0.4c0,0.2,0.1,0.3,0.3,0.4c0,0,0.1,0,0.1,0v0
			C23.7,9.9,23.7,9.6,23.7,9.3z M23.5,4.6c-0.2,0-0.5,0-0.7,0.1c-0.1,0.1-0.3,0.2-0.4,0.3c0,0.1,0,0.1,0,0.2h0
			C22.6,5.1,22.9,5,23.2,5C23.3,4.9,23.4,4.8,23.5,4.6z M23.2,8.7c0-0.1-0.1-0.3-0.3-0.4c-0.1,0.2-0.2,0.4-0.2,0.6c0,0,0,0.1,0,0.1
			c0,0.2,0.1,0.3,0.2,0.5c0,0,0.1,0.1,0.1,0.1v0C23.1,9.3,23.1,9,23.2,8.7z M22.4,8.3c0,0.1,0,0.2,0.1,0.4c0,0,0.1,0.1,0.1,0.1
			c0,0,0,0,0,0c0-0.3,0.1-0.5,0.3-0.7c0-0.2-0.1-0.3-0.1-0.5c-0.2,0.2-0.3,0.4-0.3,0.6C22.4,8.2,22.4,8.3,22.4,8.3z M22.7,7.3
			c0-0.1,0-0.1,0-0.2s0-0.2,0-0.3c-0.2,0.1-0.4,0.3-0.5,0.5c-0.1,0.1-0.1,0.3-0.1,0.4c0,0,0,0,0,0.1c0,0,0.1,0.1,0.1,0.1
			c0,0,0,0,0,0C22.3,7.7,22.5,7.5,22.7,7.3z M22.1,6c0,0,0,0.1,0,0.1h0c0.2-0.2,0.4-0.3,0.7-0.4C22.9,5.6,23,5.4,23,5.3
			c-0.3,0-0.5,0.1-0.7,0.3C22.3,5.6,22.2,5.8,22.1,6z M22,6.9c0,0,0,0.1,0,0.2c0,0,0,0,0,0c0.1-0.2,0.3-0.4,0.6-0.5
			c0.1-0.1,0.1-0.3,0.1-0.5c-0.3,0.1-0.4,0.2-0.6,0.4C22.1,6.6,22,6.7,22,6.9z M21.9,7.8c-0.1-0.2-0.4-0.3-0.6-0.4
			c0,0.3,0.1,0.5,0.3,0.7c0.1,0.1,0.2,0.1,0.3,0.2c0.1,0,0.2,0.1,0.3,0.1C22.1,8.2,22,8,21.9,7.8z M21.5,8.5
			c0.1,0.3,0.2,0.5,0.4,0.6c0.1,0.1,0.2,0.1,0.3,0.1c0.1,0,0.3,0,0.4,0c-0.1-0.2-0.2-0.4-0.4-0.6l0,0C22,8.6,21.8,8.5,21.5,8.5z
			 M22,9.6c0.1,0.2,0.3,0.4,0.6,0.5c0.1,0,0.2,0.1,0.3,0.1c0.1,0,0.3,0,0.4-0.1c-0.1-0.2-0.3-0.4-0.5-0.4C22.5,9.5,22.3,9.5,22,9.6z
			 M22.8,10.4c0.2,0.2,0.4,0.3,0.7,0.3c0.2,0,0.5,0,0.7-0.1c-0.2-0.2-0.4-0.3-0.7-0.3l0,0C23.2,10.2,23,10.3,22.8,10.4z M24.7,10.6
			C24.7,10.6,24.7,10.6,24.7,10.6c0-0.3-0.1-0.5-0.2-0.7l0,0c-0.1-0.2-0.3-0.3-0.6-0.4c0,0,0,0,0,0.1c0,0.2,0.1,0.4,0.2,0.6
			C24.2,10.4,24.4,10.6,24.7,10.6z M23.7,3.5c0,0.1-0.1,0.2-0.2,0.3c0.2,0,0.4-0.1,0.6-0.2c0.2-0.1,0.3-0.4,0.4-0.6
			c-0.3,0-0.5,0.1-0.7,0.2c0,0,0,0-0.1,0.1C23.8,3.3,23.8,3.4,23.7,3.5L23.7,3.5z M23,3.5c0,0.1,0,0.3,0,0.4
			c0.2-0.1,0.4-0.3,0.5-0.5c0.1-0.2,0.1-0.4,0.1-0.6c0-0.1,0-0.1,0-0.2c-0.2,0.1-0.4,0.3-0.5,0.5C23,3.3,23,3.4,23,3.5z M22.9,4.5
			C22.9,4.5,22.9,4.5,22.9,4.5c0.3-0.1,0.6-0.1,0.8,0c0.1-0.1,0.3-0.2,0.4-0.3c-0.2-0.1-0.5-0.1-0.7,0c-0.2,0-0.3,0.1-0.4,0.3
			C22.9,4.4,22.9,4.4,22.9,4.5z M22.3,4.3C22.3,4.3,22.3,4.3,22.3,4.3c0.1,0.2,0.1,0.3,0.1,0.4c0.2-0.2,0.3-0.4,0.4-0.6
			c0-0.1,0-0.2,0-0.3c0-0.1,0-0.3-0.1-0.5c-0.2,0.2-0.3,0.4-0.4,0.6C22.3,4.1,22.3,4.2,22.3,4.3z M21.8,4.9c0,0.1,0,0.2,0.1,0.3
			C21.9,5.4,22,5.5,22,5.6c0.1-0.2,0.2-0.4,0.2-0.7l0,0c0-0.2-0.1-0.5-0.2-0.7C21.9,4.4,21.8,4.7,21.8,4.9L21.8,4.9z M21.4,5.7
			c0,0.1,0,0.2,0,0.3c0,0.1,0.1,0.2,0.1,0.3c0.1,0.1,0.2,0.1,0.3,0.3c0-0.1,0.1-0.3,0.1-0.4c0-0.1,0-0.2,0-0.3
			c-0.1-0.2-0.2-0.4-0.4-0.6C21.4,5.4,21.4,5.6,21.4,5.7z M21.2,6.5c0,0.2,0,0.4,0.1,0.6c0,0.1,0.1,0.2,0.2,0.3
			c0.1,0,0.2,0.1,0.3,0.2c0,0,0-0.1,0-0.1c0-0.2,0-0.4-0.1-0.6c-0.1-0.2-0.3-0.4-0.6-0.5C21.2,6.4,21.2,6.4,21.2,6.5z M12.2,9.4
			c0.3-0.2,0.6-0.3,1-0.3c0.4,0,0.9,0.1,1.4,0.2c0.5,0.1,1,0.3,1.6,0.2c0-0.3,0-5.4,0-6.4c0-0.1,0-0.1,0-0.1c-0.6,0-1.1-0.1-1.6-0.2
			c-0.4-0.1-0.9-0.2-1.3-0.2c-0.6,0-0.9,0.2-1,0.3v0.2V9.4z M8,9.6c0.5,0,1-0.1,1.6-0.2c0.5-0.1,0.9-0.2,1.4-0.2
			c0.4,0,0.7,0.1,1,0.3V3.2V3c-0.2-0.2-0.5-0.3-1-0.3c-0.4,0-0.8,0.1-1.3,0.2C9.1,3,8.6,3.1,8,3c0,0,0,0.1,0,0.1C8,4.1,8,9.3,8,9.6z
			 M7,10.6c0,0,4.3,0,4.5,0c0.1,0.2,0.3,0.3,0.6,0.3c0.3,0,0.5-0.1,0.6-0.3c0.1,0,4.5,0,4.5,0V3.2h-0.1h-0.4l0,0.1v0v6.7
			c-0.3,0-4,0-4.2,0c-0.1,0.1-0.1,0.1-0.4,0.1c-0.2,0-0.3,0-0.3-0.1c-0.2,0-3.5,0-4.2,0V3.4v0l0-0.1H7V10.6z M8.6,25.5L19.2,16
			l10.6,9.5c0.7-1.3,1.2-2.6,1.6-3.9l-12.2-11L7,21.6C7.4,22.8,7.9,24.1,8.6,25.5z M10.9,7.5c0.3,0,0.5,0,0.6,0.1V7.3
			c-0.2-0.1-0.4-0.1-0.6-0.1c-0.4,0-0.9,0.1-1.4,0.2C9.1,7.5,8.8,7.6,8.4,7.6v0.3c0.4,0,0.8-0.1,1.2-0.2C10.1,7.6,10.5,7.5,10.9,7.5
			z M10.9,8.3c0.3,0,0.5,0,0.6,0.1V8.1C11.3,8,11.1,8,10.9,8C10.4,8,10,8.1,9.5,8.2C9.1,8.3,8.8,8.4,8.4,8.4v0.3
			c0.4,0,0.8-0.1,1.2-0.2C10.1,8.4,10.5,8.3,10.9,8.3z M10.9,3.7c0.3,0,0.5,0.1,0.6,0.1V3.5c-0.2-0.1-0.4-0.1-0.6-0.1
			c-0.4,0-0.9,0.1-1.4,0.2C9.1,3.7,8.8,3.8,8.4,3.9v0.3c0.4,0,0.8-0.1,1.2-0.2C10.1,3.8,10.5,3.7,10.9,3.7z M14.5,5.5
			c0.4,0.1,0.8,0.2,1.2,0.2V5.4c-0.4,0-0.8-0.1-1.1-0.2C14.1,5.1,13.6,5,13.2,5c-0.2,0-0.4,0-0.6,0.1v0.3c0.1-0.1,0.4-0.1,0.6-0.1
			C13.6,5.2,14,5.3,14.5,5.5z M14.5,4c0.4,0.1,0.8,0.2,1.2,0.2V3.9c-0.4,0-0.8-0.1-1.1-0.2c-0.5-0.1-0.9-0.2-1.4-0.2
			c-0.2,0-0.4,0-0.6,0.1v0.3c0.1-0.1,0.4-0.1,0.6-0.1C13.6,3.7,14,3.8,14.5,4z M14.5,7c0.4,0.1,0.8,0.2,1.2,0.2V6.9
			c-0.4,0-0.8-0.1-1.1-0.2c-0.5-0.1-0.9-0.2-1.3-0.2c-0.2,0-0.4,0-0.6,0.1v0.3c0.1-0.1,0.4-0.1,0.6-0.1C13.6,6.7,14,6.9,14.5,7z
			 M14.5,4.7c0.4,0.1,0.8,0.2,1.2,0.2V4.6c-0.4,0-0.8-0.1-1.1-0.2c-0.5-0.1-0.9-0.2-1.4-0.2c-0.2,0-0.4,0-0.6,0.1v0.3
			c0.1-0.1,0.4-0.1,0.6-0.1C13.6,4.5,14,4.6,14.5,4.7z M14.5,7.7c0.4,0.1,0.8,0.2,1.2,0.2V7.7c-0.4,0-0.8-0.1-1.1-0.2
			c-0.5-0.1-0.9-0.2-1.4-0.2c-0.2,0-0.4,0-0.6,0.1v0.3c0.1-0.1,0.4-0.1,0.6-0.1C13.6,7.5,14,7.6,14.5,7.7z M14.5,8.5
			c0.4,0.1,0.8,0.2,1.2,0.2V8.4c-0.4,0-0.8-0.1-1.1-0.2C14.1,8.1,13.6,8,13.2,8c-0.2,0-0.4,0-0.6,0.1v0.3c0.1-0.1,0.4-0.1,0.6-0.1
			C13.6,8.3,14,8.4,14.5,8.5z M38.1,24.2l-0.1,0.2c-0.7,2.3-1.9,4.7-2.7,6.2l-0.2,0.3l-1.2-1.1c0,0.1-0.1,0.2-0.1,0.3
			c-3.1,5-7.5,8.6-12.7,10.5l-1.9,0.7l-1.9-0.7C12.2,38.7,7.7,35,4.7,30.1c0-0.1-0.1-0.2-0.1-0.3l-1.3,1.1l-0.2-0.3
			c-0.9-1.6-2-3.9-2.7-6.2l0-0.1l3-2.7l0.4-0.3l0.1,0.4c0.1,0.6,0.3,1.1,0.5,1.6l0.9-0.8l0.3-0.3l0.1,0.4c0.6,1.9,1.5,3.7,2.5,5.3
			c2.6,4.2,6.3,7.2,10.6,8.8c0,0,0.3,0.1,0.4,0.1c0.1,0,0.4-0.1,0.4-0.1c4.3-1.6,8-4.6,10.6-8.8c1-1.6,1.9-3.4,2.5-5.3l0.1-0.4
			l1.2,1.1c0.2-0.5,0.4-1,0.5-1.6l0.1-0.4L38.1,24.2z M2.8,28.7l-0.6-3.5l1.6-1.5c-0.2-0.4-0.3-0.9-0.5-1.4
			c-0.5,0.4-2.2,1.9-2.4,2.1C1.5,25.9,2.1,27.4,2.8,28.7z M4.2,29.3c-0.4-0.6-0.7-1.3-1-2l0.4,2.6C3.7,29.7,4,29.5,4.2,29.3z
			 M35.2,27.3c-0.3,0.7-0.7,1.3-1,2l0,0c0.3,0.2,0.5,0.4,0.6,0.6L35.2,27.3z M35.5,25.3c-0.3-0.2-1.9-1.7-2.3-2.1
			c-0.6,1.8-1.4,3.5-2.4,5c-2.7,4.3-6.5,7.4-10.9,9.1l-0.7,0.2l-0.6-0.2c-4.5-1.6-8.2-4.8-10.9-9.1c-1-1.5-1.7-3.2-2.4-5
			c-0.5,0.4-2,1.9-2.3,2.1c0.6,1.6,1.4,3.1,2.2,4.4c3,4.9,7.3,8.4,12.4,10.2c0,0,1.5,0.5,1.6,0.6c0.2-0.1,1.7-0.6,1.7-0.6
			c5.1-1.9,9.4-5.4,12.4-10.2C34.1,28.4,34.9,26.9,35.5,25.3z M37.4,24.4c-0.2-0.2-1.9-1.7-2.4-2.1c-0.1,0.5-0.3,1-0.5,1.4l1.6,1.5
			l-0.6,3.6C36.3,27.4,37,25.9,37.4,24.4z M5.5,28.9l0,0.1l-0.1,0.1c-0.1-0.1-0.1-0.2-0.2-0.4c-0.1-0.1-0.1-0.2-0.2-0.4l0.1,0
			l0.1,0.1c0.1-0.1,0.3-0.3,0.4-0.4l-0.3-0.5l-0.5,0.1l0,0.1l-0.1,0c0-0.1-0.1-0.2-0.1-0.3c0-0.1-0.1-0.1-0.1-0.3l0.1,0l0.1,0.1
			c0.4,0,1.1-0.1,1.6-0.2c0.1,0.1,0.2,0.2,0.3,0.3l0,0.1l-0.5,0.6C5.9,28.4,5.6,28.8,5.5,28.9z M5.8,27.9l0.4-0.5l0,0l-0.7,0.1
			L5.8,27.9z M8.5,30.7L8.5,30.7c0-0.1,0-0.2-0.1-0.3c-0.1-0.1-0.1-0.2-0.2-0.3l-0.1,0.1l0.1,0.1C7.9,30.5,7.3,31,7.3,31l0,0
			c0.1-0.4,0.3-1,0.5-1.4c-0.1-0.1-0.1-0.1-0.2-0.2c0-0.1-0.1-0.1-0.1-0.2l-0.1,0.1l0.1,0.1c-0.1,0.1-0.2,0.2-0.4,0.3l-0.4,0.3
			c-0.1,0.1-0.3,0.2-0.4,0.3l-0.1-0.1l-0.1,0.1c0.1,0.1,0.1,0.1,0.2,0.3c0.1,0.1,0.1,0.2,0.2,0.3l0.1-0.1l-0.1-0.2
			C6.7,30.2,7,30,7.3,29.7l0,0c-0.2,0.4-0.3,0.9-0.5,1.4c0,0,0.1,0.1,0.1,0.1c0,0,0.1,0.1,0.1,0.1c0.1-0.1,0.3-0.3,0.5-0.4L8,30.8
			c0.1-0.1,0.3-0.2,0.4-0.3L8.5,30.7z M8.6,32c-0.4,0.4-0.4,0.9,0,1.3c0.2,0.2,0.4,0.4,0.9,0.4l0-0.2c-0.2,0-0.4-0.1-0.5-0.3
			c-0.3-0.3-0.3-0.6,0-0.9c0.3-0.3,0.6-0.2,0.8,0c0.1,0.1,0.2,0.3,0.2,0.4l-0.1,0.1L10,33c0.1-0.1,0.3-0.2,0.4-0.2
			c-0.1-0.2-0.2-0.4-0.3-0.6C9.6,31.7,9,31.7,8.6,32z M12.2,35.4c-0.3,0.4-0.9,0.4-1.4,0c-0.5-0.4-0.6-0.9-0.2-1.4
			c0.3-0.4,0.9-0.4,1.4,0C12.5,34.5,12.6,35,12.2,35.4z M11.9,34.3c-0.3-0.2-0.6-0.1-0.9,0.1c-0.3,0.3-0.3,0.6,0,0.9
			c0.3,0.2,0.6,0.1,0.9-0.1C12.1,34.8,12.1,34.5,11.9,34.3z M14.8,36.7c-0.1,0.2-0.4,0.3-0.6,0.1c0,0.2,0.1,0.8,0.1,0.9l0,0.1
			l-0.1,0.1c-0.1-0.1-0.3-0.2-0.5-0.3c0-0.3,0-0.7-0.1-1l-0.1-0.1l-0.1,0.1c-0.1,0.1-0.2,0.3-0.2,0.4l0.1,0.1l-0.1,0.1
			c-0.1-0.1-0.2-0.1-0.3-0.2c-0.1-0.1-0.2-0.1-0.4-0.2l0.1-0.1l0.1,0.1c0.1-0.1,0.2-0.3,0.3-0.4l0.3-0.4c0.1-0.1,0.2-0.3,0.3-0.4
			l-0.1-0.1l0.1-0.1c0.1,0.1,0.2,0.1,0.3,0.2c0.1,0.1,0.2,0.1,0.3,0.2c0.1,0.1,0.2,0.1,0.3,0.2C15,36.2,15,36.4,14.8,36.7z M14.3,36
			C14.2,36,14.1,36,14,35.9c0,0.1-0.1,0.2-0.2,0.3l-0.1,0.1c0,0,0.1,0.1,0.1,0.1c0.2,0.1,0.4,0.1,0.5,0C14.5,36.3,14.4,36.1,14.3,36
			z M17.1,38c0,0.3-0.1,0.8-0.1,1l0.1,0.1l0,0.1c-0.1-0.1-0.3-0.1-0.4-0.2c-0.1-0.1-0.3-0.1-0.4-0.1l0-0.1l0.1,0
			c0-0.1,0.1-0.4,0.1-0.5l-0.5-0.2l-0.3,0.4l0.1,0.1l0,0.1c-0.1,0-0.2-0.1-0.3-0.1c-0.1,0-0.2-0.1-0.3-0.1l0-0.1l0.1,0
			c0.3-0.2,0.8-0.8,1.2-1.2c0.1,0,0.3,0,0.4,0.1l0.1,0.1L17.1,38z M16.7,37.4L16.7,37.4l-0.4,0.5l0.4,0.2L16.7,37.4z M22.2,38.7
			c-0.1-0.1-0.1-0.3-0.2-0.4l-0.2-0.4c-0.1-0.2-0.1-0.3-0.2-0.4l0.1-0.1l0-0.1c-0.1,0.1-0.3,0.1-0.4,0.2c-0.1,0-0.3,0.1-0.4,0.1
			l0,0.1l0.1,0c0.1,0.1,0.1,0.3,0.2,0.4l0.2,0.4c0.1,0.2,0.1,0.3,0.2,0.4L21.6,39l0,0.1c0.1-0.1,0.3-0.1,0.4-0.2
			c0.1,0,0.3-0.1,0.4-0.1l0-0.1L22.2,38.7z M25.3,37c-0.1-0.1-0.2-0.3-0.3-0.4l-0.3-0.4c-0.1-0.1-0.2-0.3-0.2-0.4l0.1-0.1l-0.1-0.1
			c-0.1,0.1-0.2,0.1-0.3,0.2c-0.1,0.1-0.2,0.1-0.3,0.2c0.1,0.2,0.2,1.1,0.3,1.3c-0.2-0.1-0.9-0.7-1-0.9c-0.1,0.1-0.2,0.1-0.3,0.2
			c-0.1,0.1-0.2,0.1-0.3,0.2l0.1,0.1l0.1,0L23,37c0.1,0.2,0.5,0.9,0.6,1.1l-0.1,0.1l0.1,0.1c0.1,0,0.2-0.1,0.3-0.1
			c0.1,0,0.2-0.1,0.3-0.1L24,37.8l-0.1,0.1c-0.1-0.1-0.2-0.3-0.3-0.4l-0.1-0.3c-0.1-0.2-0.2-0.4-0.3-0.4l0,0c0.6,0.6,1,0.8,1.1,1
			l0.2-0.1l-0.3-1.5l0,0c0,0.1,0.1,0.2,0.3,0.4l0.1,0.3c0.1,0.1,0.1,0.3,0.2,0.4l-0.1,0.1l0,0.1c0.1-0.1,0.2-0.1,0.3-0.2
			c0.1-0.1,0.3-0.1,0.4-0.2l0-0.1H25.3z M27.1,35.7c-0.1-0.1-0.2-0.2-0.3-0.4L26.5,35c-0.1-0.1-0.2-0.3-0.3-0.4c0,0,0.1-0.1,0.1-0.1
			c0.2-0.1,0.3-0.1,0.4,0c0.1,0.1,0.1,0.3,0,0.4c0,0-0.1,0.1-0.1,0.1l0.1,0.2c0.1,0,0.1-0.1,0.2-0.1c0.4-0.3,0.4-0.7,0.2-0.9
			c-0.2-0.2-0.5-0.3-0.8,0c-0.1,0.1-0.1,0.1-0.3,0.2c-0.1,0.1-0.2,0.2-0.3,0.3c-0.1,0.1-0.2,0.1-0.3,0.2l0.1,0.1l0.1-0.1
			c0.1,0.1,0.2,0.2,0.3,0.4l0.3,0.4c0.1,0.1,0.2,0.3,0.3,0.4l-0.1,0.1l0.1,0.1c0.1-0.1,0.2-0.2,0.3-0.3c0.1-0.1,0.2-0.1,0.4-0.3
			l-0.1-0.1L27.1,35.7z M30,33L30,33c0,0.1-0.1,0.3-0.2,0.4c-0.1,0.1-0.2,0.2-0.3,0.3l-0.1-0.1l0.1-0.1c-0.1-0.1-0.3-0.2-0.5-0.3
			l-0.4,0.4l0.3,0.4l0.1-0.1l0.1,0.1c-0.1,0.1-0.1,0.1-0.2,0.2c-0.1,0.1-0.1,0.1-0.2,0.2l-0.1-0.1l0.1-0.1c-0.1-0.3-0.5-1-0.7-1.5
			c0.1-0.1,0.1-0.2,0.2-0.3l0.1-0.1l0.7,0.3c0.3,0.1,0.7,0.3,0.9,0.4L30,33z M28.8,33.1l-0.6-0.3l0,0l0.3,0.6L28.8,33.1z M31.9,30.6
			L31.9,30.6c0,0.2-0.1,0.4-0.2,0.5c-0.3,0-0.8,0-1,0l-0.1,0.1l0.1,0.1c0.1,0.1,0.3,0.2,0.4,0.3l0.1-0.1l0.1,0.1
			c-0.1,0.1-0.2,0.2-0.3,0.3s-0.1,0.2-0.3,0.3l-0.1-0.1l0.1-0.1c-0.1-0.1-0.2-0.2-0.4-0.3l-0.4-0.3c-0.1-0.1-0.3-0.2-0.4-0.3
			l-0.1,0.1l-0.1-0.1c0.1-0.1,0.1-0.1,0.2-0.3c0.1-0.1,0.1-0.2,0.2-0.3s0.1-0.2,0.2-0.3c0.3-0.4,0.6-0.4,0.7-0.2
			c0.2,0.1,0.2,0.4,0.1,0.6c0.2,0,0.8,0,0.9,0L31.9,30.6z M30.5,30.4c-0.1-0.1-0.3-0.1-0.4,0.1c-0.1,0.1-0.1,0.1-0.1,0.2
			c0.1,0,0.1,0.1,0.3,0.2l0.1,0.1c0,0,0.1-0.1,0.1-0.1C30.6,30.7,30.6,30.6,30.5,30.4z M33.1,28.9c-0.3,0.6-0.8,0.7-1.3,0.4
			c-0.4-0.3-0.6-0.8-0.3-1.3c0.3-0.6,0.8-0.7,1.3-0.4C33.3,27.8,33.5,28.3,33.1,28.9z M32.6,28c-0.3-0.2-0.7-0.1-0.9,0.1
			c-0.2,0.3,0,0.6,0.3,0.8c0.3,0.2,0.7,0.1,0.9-0.1C33.1,28.5,32.9,28.1,32.6,28z M19.2,38.4c-0.2,0-0.4,0.2-0.4,0.4
			s0.2,0.4,0.4,0.4c0.2,0,0.4-0.2,0.4-0.4S19.4,38.4,19.2,38.4z M4.7,26.1c0.2,0,0.4-0.2,0.4-0.4c0-0.2-0.2-0.4-0.4-0.4
			s-0.4,0.2-0.4,0.4C4.4,25.9,4.6,26.1,4.7,26.1z M33.7,26.1c0.2,0,0.4-0.2,0.4-0.4c0-0.2-0.2-0.4-0.4-0.4c-0.2,0-0.4,0.2-0.4,0.4
			C33.3,25.9,33.5,26.1,33.7,26.1z"/>
	</g>
</g>
</svg>
